
		<svg xmlns="http://www.w3.org/2000/svg" xmlns:xlink="http://www.w3.org/1999/xlink" version="1.1" width="2417.5824175824177" height="3219.78021978022">
			
			<g transform="scale(10.989010989010989) translate(10, 10)">
				<defs id="SvgjsDefs5003"/><g id="SvgjsG5004" featureKey="root" fill="#000" transform="matrix(1,0,0,1,0,0)"/><g id="SvgjsG5005" featureKey="symbol1" fill="#000" transform="matrix(0.1466275528600651,0,0,0.1466275528600651,26.68621685789075,-0.8504382404371462)"><g><path d="M494.3,109.6L182.1,289.9c-14.2,8.2-23,23.4-23,39.8v0c0,6.3,5.1,11.4,11.4,11.4H477   c6.3,0,11.4,5.1,11.4,11.4v126.7H385c-6.7-8.1-16.8-13.2-28.1-13.2c-0.8,0-1.6,0-2.5,0.1c-19.1,1.3-34.1,17.3-34.1,36.5   c0,19.2,15,35.3,34.2,36.5c0.9,0.1,1.7,0.1,2.5,0.1c10.6,0,20.1-4.5,26.8-11.7H477c6.3,0,11.4,5.1,11.4,11.4v141   c0,6.3,5.1,11.4,11.4,11.4h0.3v0.1h227.6c11.6,0,15.8,15.4,5.7,21.2L505.7,843.9c-3.5,2-7.8,2-11.4,0L205,676.9   c-3.5-2-5.7-5.8-5.7-9.8V447.9c0-6.3-5.1-11.4-11.4-11.4h-17.5c-6.3,0-11.4,5.1-11.4,11.4v242.4c0,4.1,2.2,7.8,5.7,9.8l329.6,190.3   c3.5,2,7.8,2,11.4,0l329.6-190.3c3.5-2,5.7-5.8,5.7-9.8V309.7c0-4.1-2.2-7.8-5.7-9.8L505.7,109.6   C502.2,107.6,497.8,107.6,494.3,109.6z M356.9,525.4c-0.5,0-1,0-1.5-0.1c-11.9-0.8-21.3-10.7-21.3-22.8c0-12.1,9.4-22,21.3-22.8   c0.5,0,1-0.1,1.5-0.1c12.6,0,22.8,10.2,22.8,22.8C379.7,515.2,369.4,525.4,356.9,525.4z M789.3,651H522.7   c-6.3,0-11.4-5.1-11.4-11.4V632c0-6.3,5.1-11.4,11.4-11.4h100.6c5,5.4,11.6,9.2,18.8,10.8c2.6,0.6,5.3,0.9,8,0.9   c20.2,0,36.6-16.4,36.6-36.6c0-20.2-16.4-36.6-36.6-36.6c-2.7,0-5.4,0.3-8,0.9c-7.9,1.8-15,6.1-20.2,12.4h-99.2   c-6.3,0-11.4-5.1-11.4-11.4V444.9c0-6.3,5.1-11.4,11.4-11.4h101.5c6.1,6.1,14.2,9.9,22.8,10.6c1,0.1,2,0.1,3.1,0.1   c20.2,0,36.6-16.4,36.6-36.6c0-20.2-16.4-36.6-36.6-36.6c-2.3,0-4.5,0.2-6.7,0.6c-9.1,1.7-16.9,6.7-22.3,13.6h-98.5   c-6.3,0-11.4-5.1-11.4-11.4v-61.2c0-6.3-5.1-11.4-11.4-11.4l0,0v-0.5H286.1c-11.6,0-15.8-15.4-5.7-21.2l213.9-123.5   c3.5-2,7.8-2,11.4,0l289.3,167c3.5,2,5.7,5.8,5.7,9.8v306.7C800.7,646,795.6,651,789.3,651z M627.3,595.7c0-10.9,7.6-20,17.8-22.3   c1.3-0.3,2.6-0.5,4-0.5c12.3-0.5,23,9.1,23.7,21.4c0.8,13.2-9.7,24.2-22.8,24.2c-1.7,0-3.4-0.2-5-0.6   C635,615.7,627.3,606.6,627.3,595.7z M627.3,407.7c0-11.2,8.1-20.5,18.7-22.4c2.8-0.5,5.7-0.5,8.8,0.1c7.5,1.4,13.9,6.5,16.6,13.7   c6,16.2-5.8,31.5-21.2,31.5c-0.6,0-1.3,0-1.9-0.1C636.5,429.4,627.3,419.6,627.3,407.7z"/></g></g><g id="SvgjsG5006" featureKey="text1" fill="#000" transform="matrix(3.744377232895096,0,0,3.744377232895096,-10.484255180831349,120.11986961007881)"><path d="M13.46 23.68 q0 0.12 -0.1 0.22 t-0.22 0.1 q-0.14 0 -0.24 -0.09 t-0.1 -0.23 l0 -6.28 l-9.4 0 l0 6.28 q0 0.32 -0.3 0.32 q-0.14 0 -0.22 -0.1 t-0.08 -0.22 l0 -15.38 q0 -0.12 0.09 -0.21 t0.21 -0.09 t0.21 0.09 t0.09 0.21 l0 6.54 l9.4 0 l0 -6.54 q0 -0.14 0.11 -0.22 t0.23 -0.08 t0.22 0.09 t0.1 0.21 l0 15.38 z M12.8 16.759999999999998 l0 -1.34 l-9.36 0 l-0.02 1.34 l9.38 0 z M29.12 23.7 q0 0.12 -0.09 0.21 t-0.21 0.09 q-0.24 0 -0.3 -0.2 l-5.82 -14.68 l-0.66 1.7 q0.08 0.16 0.34 0.8 t0.64 1.57 t0.82 2.06 t0.9 2.29 t0.89 2.26 t0.76 1.96 t0.53 1.39 t0.2 0.55 q0 0.22 -0.2 0.28 q-0.04 0 -0.06 0.01 t-0.06 0.01 q-0.2 0 -0.28 -0.2 l-4.8 -12.12 l-4.66 12.12 q-0.08 0.2 -0.3 0.2 q-0.04 0 -0.05 -0.01 t-0.05 -0.01 q-0.2 -0.06 -0.2 -0.3 q0 -0.02 0.24 -0.66 t0.63 -1.66 t0.9 -2.34 t1.04 -2.71 t1.06 -2.75 t0.96 -2.49 t0.73 -1.9 t0.38 -0.99 q0.08 -0.18 0.3 -0.18 t0.28 0.18 q0.08 0.22 0.39 0.99 t0.75 1.9 t0.99 2.49 t1.1 2.75 t1.08 2.71 t0.93 2.35 t0.65 1.67 t0.25 0.66 z M44.3 21.740000000000002 q0 0.12 -0.12 0.24 q-1.08 1.02 -2.48 1.52 t-2.84 0.5 q-1.66 0 -3.12 -0.63 t-2.54 -1.71 t-1.71 -2.54 t-0.63 -3.12 t0.63 -3.12 t1.71 -2.54 t2.54 -1.71 t3.12 -0.63 q0.7 0 1.43 0.13 t1.42 0.39 t1.32 0.63 t1.15 0.87 q0.12 0.12 0.12 0.24 t-0.11 0.22 t-0.23 0.1 t-0.2 -0.08 q-0.58 -0.44 -1.14 -0.79 t-1.14 -0.59 t-1.23 -0.37 t-1.39 -0.13 q-1.52 0 -2.86 0.58 t-2.35 1.59 t-1.59 2.35 t-0.58 2.86 t0.58 2.86 t1.59 2.35 t2.35 1.59 t2.86 0.58 q1.44 0 2.62 -0.49 t2.28 -1.39 q0.1 -0.1 0.22 -0.1 t0.22 0.11 t0.1 0.23 z M56.160000000000004 23.72 q0 0.12 -0.11 0.2 t-0.21 0.08 q-0.16 0 -0.24 -0.12 l-5.38 -7.52 l-2.96 2.96 l0 4.24 q0 0.12 -0.1 0.21 t-0.22 0.09 t-0.22 -0.08 t-0.1 -0.22 l0 -15.16 q0 -0.14 0.1 -0.22 t0.22 -0.08 t0.22 0.09 t0.1 0.21 l0 7.36 l7.66 -7.68 q0.1 -0.1 0.2 -0.1 q0.12 0 0.22 0.11 t0.1 0.21 q0 0.12 -0.1 0.22 l-8.08 8.1 l0 1.84 q0.08 -0.08 0.32 -0.33 t0.54 -0.57 t0.65 -0.66 t0.65 -0.63 t0.52 -0.48 t0.28 -0.19 q0.18 0 0.28 0.12 q0.12 0.18 0.59 0.83 t1.1 1.51 t1.33 1.82 t1.29 1.79 t0.97 1.4 t0.38 0.65 z"/></g><g id="SvgjsG5007" featureKey="text2" fill="#000" transform="matrix(2.9749852859233914,0,0,2.9749852859233914,-8.329957949435379,196.20012196836348)"><path d="M13.46 23.68 q0 0.12 -0.1 0.22 t-0.22 0.1 q-0.14 0 -0.24 -0.09 t-0.1 -0.23 l0 -6.28 l-9.4 0 l0 6.28 q0 0.32 -0.3 0.32 q-0.14 0 -0.22 -0.1 t-0.08 -0.22 l0 -15.38 q0 -0.12 0.09 -0.21 t0.21 -0.09 t0.21 0.09 t0.09 0.21 l0 6.54 l9.4 0 l0 -6.54 q0 -0.14 0.11 -0.22 t0.23 -0.08 t0.22 0.09 t0.1 0.21 l0 15.38 z M12.8 16.759999999999998 l0 -1.34 l-9.36 0 l-0.02 1.34 l9.38 0 z M29.12 23.7 q0 0.12 -0.09 0.21 t-0.21 0.09 q-0.24 0 -0.3 -0.2 l-5.82 -14.68 l-0.66 1.7 q0.08 0.16 0.34 0.8 t0.64 1.57 t0.82 2.06 t0.9 2.29 t0.89 2.26 t0.76 1.96 t0.53 1.39 t0.2 0.55 q0 0.22 -0.2 0.28 q-0.04 0 -0.06 0.01 t-0.06 0.01 q-0.2 0 -0.28 -0.2 l-4.8 -12.12 l-4.66 12.12 q-0.08 0.2 -0.3 0.2 q-0.04 0 -0.05 -0.01 t-0.05 -0.01 q-0.2 -0.06 -0.2 -0.3 q0 -0.02 0.24 -0.66 t0.63 -1.66 t0.9 -2.34 t1.04 -2.71 t1.06 -2.75 t0.96 -2.49 t0.73 -1.9 t0.38 -0.99 q0.08 -0.18 0.3 -0.18 t0.28 0.18 q0.08 0.22 0.39 0.99 t0.75 1.9 t0.99 2.49 t1.1 2.75 t1.08 2.71 t0.93 2.35 t0.65 1.67 t0.25 0.66 z M42.48 23.7 q0 0.3 -0.32 0.3 l-9.5 0 q-0.3 0 -0.3 -0.3 l0 -15.3 q0 -0.12 0.09 -0.21 t0.21 -0.09 t0.21 0.09 t0.09 0.21 l0 15 l1.34 0 l0 -15.08 q0 -0.12 0.1 -0.22 t0.22 -0.1 q0.32 0 0.32 0.32 l0 15.08 l7.22 0 q0.32 0 0.32 0.3 z M56.599999999999994 23.7 q0 0.12 -0.09 0.21 t-0.21 0.09 q-0.24 0 -0.3 -0.2 l-5.82 -14.68 l-0.66 1.7 q0.08 0.16 0.34 0.8 t0.64 1.57 t0.82 2.06 t0.9 2.29 t0.89 2.26 t0.76 1.96 t0.53 1.39 t0.2 0.55 q0 0.22 -0.2 0.28 q-0.04 0 -0.06 0.01 t-0.06 0.01 q-0.2 0 -0.28 -0.2 l-4.8 -12.12 l-4.66 12.12 q-0.08 0.2 -0.3 0.2 q-0.04 0 -0.05 -0.01 t-0.05 -0.01 q-0.2 -0.06 -0.2 -0.3 q0 -0.02 0.24 -0.66 t0.63 -1.66 t0.9 -2.34 t1.04 -2.71 t1.06 -2.75 t0.96 -2.49 t0.73 -1.9 t0.38 -0.99 q0.08 -0.18 0.3 -0.18 t0.28 0.18 q0.08 0.22 0.39 0.99 t0.75 1.9 t0.99 2.49 t1.1 2.75 t1.08 2.71 t0.93 2.35 t0.65 1.67 t0.25 0.66 z M69.96 23.7 q0 0.3 -0.32 0.3 l-9.5 0 q-0.3 0 -0.3 -0.3 l0 -15.3 q0 -0.12 0.09 -0.21 t0.21 -0.09 t0.21 0.09 t0.09 0.21 l0 15 l1.34 0 l0 -15.08 q0 -0.12 0.1 -0.22 t0.22 -0.1 q0.32 0 0.32 0.32 l0 15.08 l7.22 0 q0.32 0 0.32 0.3 z"/></g>
			</g>
		</svg>
	